<svg width="776" height="216" viewBox="0 0 776 216" fill="none" xmlns="http://www.w3.org/2000/svg">
<path d="M298.291 152.428L273.883 105.129L267.539 90.7869L264.643 105.129L255.266 152.428H239.959L260.92 51.0717H262.575L290.431 105.818L298.705 124.159L306.979 105.818L334.283 51.0717H335.8L357.588 152.428H342.419L332.214 105.129L329.18 90.7869L323.664 105.129L299.118 152.428H298.291ZM372.16 152.428V51.0717H387.605V152.428H372.16ZM482.672 152.428L423.375 86.7878L423.788 97.8198V152.428H408.344V50.9338H410.274L469.847 117.402L469.295 105.818V51.0717H484.74V152.428H482.672ZM505.481 152.428V51.0717H520.926V152.428H505.481ZM589.487 153.807C582.592 153.807 576.065 152.612 569.905 150.222C563.838 147.832 558.46 144.384 553.771 139.879C549.082 135.283 545.359 129.767 542.601 123.331C539.935 116.896 538.602 109.633 538.602 101.543C538.602 93.3611 539.935 86.0524 542.601 79.617C545.359 73.1817 549.082 67.7117 553.771 63.2069C558.552 58.7022 563.976 55.3007 570.043 53.0023C576.203 50.6121 582.684 49.4169 589.487 49.4169C596.29 49.4169 602.726 50.6121 608.793 53.0023C614.953 55.3007 620.377 58.7022 625.065 63.2069C629.846 67.7117 633.569 73.1817 636.235 79.617C638.993 86.0524 640.372 93.3611 640.372 101.543C640.372 109.633 638.993 116.896 636.235 123.331C633.569 129.767 629.892 135.283 625.203 139.879C620.515 144.384 615.091 147.832 608.931 150.222C602.863 152.612 596.382 153.807 589.487 153.807ZM589.487 139.879C595.739 139.879 601.484 138.408 606.725 135.467C611.965 132.525 616.148 128.25 619.274 122.642C622.399 116.942 623.962 109.955 623.962 101.681C623.962 93.3151 622.399 86.3282 619.274 80.7202C616.148 75.0204 611.965 70.7455 606.725 67.8955C601.576 64.9537 595.831 63.4827 589.487 63.4827C583.144 63.4827 577.352 64.9537 572.112 67.8955C566.964 70.7455 562.827 75.0204 559.701 80.7202C556.575 86.3282 555.012 93.3151 555.012 101.681C555.012 109.955 556.621 116.942 559.839 122.642C563.056 128.25 567.285 132.525 572.525 135.467C577.766 138.408 583.42 139.879 589.487 139.879ZM731.404 152.428L672.107 86.7878L672.52 97.8198V152.428H657.075V50.9338H659.006L718.579 117.402L718.027 105.818V51.0717H733.472V152.428H731.404Z" fill="white"/>
<path d="M37.0733 152V50.6435H61.4816C70.583 50.6435 78.3054 51.6548 84.6488 53.6773C91.0842 55.6998 96.3703 58.4119 100.507 61.8134C104.644 65.123 107.862 68.9382 110.16 73.2591C112.551 77.488 114.205 81.9008 115.125 86.4975C116.044 91.0022 116.504 95.3691 116.504 99.598C116.504 105.941 115.584 112.239 113.746 118.49C111.999 124.65 109.057 130.258 104.92 135.314C100.783 140.37 95.2212 144.416 88.2342 147.449C81.3392 150.483 72.6975 152 62.309 152H37.0733ZM52.5181 138.348H63.9638C70.7669 138.348 76.4668 137.291 81.0634 135.176C85.752 133.062 89.4753 130.212 92.2333 126.626C95.0833 122.949 97.1058 118.858 98.3009 114.353C99.588 109.757 100.232 105.068 100.232 100.287C100.232 93.7602 99.0824 87.7846 96.784 82.3605C94.4857 76.8445 90.6705 72.4317 85.3383 69.1221C80.0981 65.8125 72.9733 64.1577 63.9638 64.1577H52.5181V138.348Z" fill="white"/>
<circle cx="180.33" cy="104.396" r="47.5165" stroke="white" stroke-width="7.76"/>
<circle cx="180.864" cy="85.749" r="14.2919" fill="white"/>
<circle cx="161.427" cy="116.62" r="14.2919" fill="white"/>
<circle cx="200.301" cy="116.62" r="14.2919" fill="white"/>
<path d="M776 204H741V200H772V7H4V200H35V204H0V3H776V204Z" fill="white"/>
<path d="M51.9029 202.436C51.9029 199.988 52.4669 197.792 53.5949 195.848C54.7469 193.904 56.2949 192.392 58.2389 191.312C60.2069 190.208 62.3549 189.656 64.6829 189.656C67.3469 189.656 69.7109 190.316 71.7749 191.636C73.8629 192.932 75.3749 194.78 76.3109 197.18H71.3789C70.7309 195.86 69.8309 194.876 68.6789 194.228C67.5269 193.58 66.1949 193.256 64.6829 193.256C63.0269 193.256 61.5509 193.628 60.2549 194.372C58.9589 195.116 57.9389 196.184 57.1949 197.576C56.4749 198.968 56.1149 200.588 56.1149 202.436C56.1149 204.284 56.4749 205.904 57.1949 207.296C57.9389 208.688 58.9589 209.768 60.2549 210.536C61.5509 211.28 63.0269 211.652 64.6829 211.652C66.1949 211.652 67.5269 211.328 68.6789 210.68C69.8309 210.032 70.7309 209.048 71.3789 207.728H76.3109C75.3749 210.128 73.8629 211.976 71.7749 213.272C69.7109 214.568 67.3469 215.216 64.6829 215.216C62.3309 215.216 60.1829 214.676 58.2389 213.596C56.2949 212.492 54.7469 210.968 53.5949 209.024C52.4669 207.08 51.9029 204.884 51.9029 202.436ZM101.023 189.98V205.928C101.023 207.824 101.515 209.252 102.499 210.212C103.507 211.172 104.899 211.652 106.675 211.652C108.475 211.652 109.867 211.172 110.851 210.212C111.859 209.252 112.363 207.824 112.363 205.928V189.98H116.467V205.856C116.467 207.896 116.023 209.624 115.135 211.04C114.247 212.456 113.059 213.512 111.571 214.208C110.083 214.904 108.439 215.252 106.639 215.252C104.839 215.252 103.195 214.904 101.707 214.208C100.243 213.512 99.0787 212.456 98.2147 211.04C97.3507 209.624 96.9187 207.896 96.9187 205.856V189.98H101.023ZM145.894 215.252C144.214 215.252 142.702 214.964 141.358 214.388C140.014 213.788 138.958 212.948 138.19 211.868C137.422 210.788 137.038 209.528 137.038 208.088H141.43C141.526 209.168 141.946 210.056 142.69 210.752C143.458 211.448 144.526 211.796 145.894 211.796C147.31 211.796 148.414 211.46 149.206 210.788C149.998 210.092 150.394 209.204 150.394 208.124C150.394 207.284 150.142 206.6 149.638 206.072C149.158 205.544 148.546 205.136 147.802 204.848C147.082 204.56 146.074 204.248 144.778 203.912C143.146 203.48 141.814 203.048 140.782 202.616C139.774 202.16 138.91 201.464 138.19 200.528C137.47 199.592 137.11 198.344 137.11 196.784C137.11 195.344 137.47 194.084 138.19 193.004C138.91 191.924 139.918 191.096 141.214 190.52C142.51 189.944 144.01 189.656 145.714 189.656C148.138 189.656 150.118 190.268 151.654 191.492C153.214 192.692 154.078 194.348 154.246 196.46H149.71C149.638 195.548 149.206 194.768 148.414 194.12C147.622 193.472 146.578 193.148 145.282 193.148C144.106 193.148 143.146 193.448 142.402 194.048C141.658 194.648 141.286 195.512 141.286 196.64C141.286 197.408 141.514 198.044 141.97 198.548C142.45 199.028 143.05 199.412 143.77 199.7C144.49 199.988 145.474 200.3 146.722 200.636C148.378 201.092 149.722 201.548 150.754 202.004C151.81 202.46 152.698 203.168 153.418 204.128C154.162 205.064 154.534 206.324 154.534 207.908C154.534 209.18 154.186 210.38 153.49 211.508C152.818 212.636 151.822 213.548 150.502 214.244C149.206 214.916 147.67 215.252 145.894 215.252ZM191.381 189.98V193.328H184.721V215H180.617V193.328H173.921V189.98H191.381ZM222.789 215.252C220.461 215.252 218.313 214.712 216.345 213.632C214.401 212.528 212.853 211.004 211.701 209.06C210.573 207.092 210.009 204.884 210.009 202.436C210.009 199.988 210.573 197.792 211.701 195.848C212.853 193.904 214.401 192.392 216.345 191.312C218.313 190.208 220.461 189.656 222.789 189.656C225.141 189.656 227.289 190.208 229.233 191.312C231.201 192.392 232.749 193.904 233.877 195.848C235.005 197.792 235.569 199.988 235.569 202.436C235.569 204.884 235.005 207.092 233.877 209.06C232.749 211.004 231.201 212.528 229.233 213.632C227.289 214.712 225.141 215.252 222.789 215.252ZM222.789 211.688C224.445 211.688 225.921 211.316 227.217 210.572C228.513 209.804 229.521 208.724 230.241 207.332C230.985 205.916 231.357 204.284 231.357 202.436C231.357 200.588 230.985 198.968 230.241 197.576C229.521 196.184 228.513 195.116 227.217 194.372C225.921 193.628 224.445 193.256 222.789 193.256C221.133 193.256 219.657 193.628 218.361 194.372C217.065 195.116 216.045 196.184 215.301 197.576C214.581 198.968 214.221 200.588 214.221 202.436C214.221 204.284 214.581 205.916 215.301 207.332C216.045 208.724 217.065 209.804 218.361 210.572C219.657 211.316 221.133 211.688 222.789 211.688ZM281.799 189.98V215H277.695V197.864L270.063 215H267.219L259.551 197.864V215H255.447V189.98H259.875L268.659 209.6L277.407 189.98H281.799ZM326.857 202.436C326.857 199.988 327.421 197.792 328.549 195.848C329.701 193.904 331.249 192.392 333.193 191.312C335.161 190.208 337.309 189.656 339.637 189.656C342.301 189.656 344.665 190.316 346.729 191.636C348.817 192.932 350.329 194.78 351.265 197.18H346.333C345.685 195.86 344.785 194.876 343.633 194.228C342.481 193.58 341.149 193.256 339.637 193.256C337.981 193.256 336.505 193.628 335.209 194.372C333.913 195.116 332.893 196.184 332.149 197.576C331.429 198.968 331.069 200.588 331.069 202.436C331.069 204.284 331.429 205.904 332.149 207.296C332.893 208.688 333.913 209.768 335.209 210.536C336.505 211.28 337.981 211.652 339.637 211.652C341.149 211.652 342.481 211.328 343.633 210.68C344.785 210.032 345.685 209.048 346.333 207.728H351.265C350.329 210.128 348.817 211.976 346.729 213.272C344.665 214.568 342.301 215.216 339.637 215.216C337.285 215.216 335.137 214.676 333.193 213.596C331.249 212.492 329.701 210.968 328.549 209.024C327.421 207.08 326.857 204.884 326.857 202.436ZM383.321 215.252C380.993 215.252 378.845 214.712 376.877 213.632C374.933 212.528 373.385 211.004 372.233 209.06C371.105 207.092 370.541 204.884 370.541 202.436C370.541 199.988 371.105 197.792 372.233 195.848C373.385 193.904 374.933 192.392 376.877 191.312C378.845 190.208 380.993 189.656 383.321 189.656C385.673 189.656 387.821 190.208 389.765 191.312C391.733 192.392 393.281 193.904 394.409 195.848C395.537 197.792 396.101 199.988 396.101 202.436C396.101 204.884 395.537 207.092 394.409 209.06C393.281 211.004 391.733 212.528 389.765 213.632C387.821 214.712 385.673 215.252 383.321 215.252ZM383.321 211.688C384.977 211.688 386.453 211.316 387.749 210.572C389.045 209.804 390.053 208.724 390.773 207.332C391.517 205.916 391.889 204.284 391.889 202.436C391.889 200.588 391.517 198.968 390.773 197.576C390.053 196.184 389.045 195.116 387.749 194.372C386.453 193.628 384.977 193.256 383.321 193.256C381.665 193.256 380.189 193.628 378.893 194.372C377.597 195.116 376.577 196.184 375.833 197.576C375.113 198.968 374.753 200.588 374.753 202.436C374.753 204.284 375.113 205.916 375.833 207.332C376.577 208.724 377.597 209.804 378.893 210.572C380.189 211.316 381.665 211.688 383.321 211.688ZM420.083 211.688H428.543V215H415.979V189.98H420.083V211.688ZM451.919 211.688H460.379V215H447.815V189.98H451.919V211.688ZM483.756 193.292V200.636H492.396V203.984H483.756V211.652H493.476V215H479.652V189.944H493.476V193.292H483.756ZM513.002 202.436C513.002 199.988 513.566 197.792 514.694 195.848C515.846 193.904 517.394 192.392 519.338 191.312C521.306 190.208 523.454 189.656 525.782 189.656C528.446 189.656 530.81 190.316 532.874 191.636C534.962 192.932 536.474 194.78 537.41 197.18H532.478C531.83 195.86 530.93 194.876 529.778 194.228C528.626 193.58 527.294 193.256 525.782 193.256C524.126 193.256 522.65 193.628 521.354 194.372C520.058 195.116 519.038 196.184 518.294 197.576C517.574 198.968 517.214 200.588 517.214 202.436C517.214 204.284 517.574 205.904 518.294 207.296C519.038 208.688 520.058 209.768 521.354 210.536C522.65 211.28 524.126 211.652 525.782 211.652C527.294 211.652 528.626 211.328 529.778 210.68C530.93 210.032 531.83 209.048 532.478 207.728H537.41C536.474 210.128 534.962 211.976 532.874 213.272C530.81 214.568 528.446 215.216 525.782 215.216C523.43 215.216 521.282 214.676 519.338 213.596C517.394 212.492 515.846 210.968 514.694 209.024C513.566 207.08 513.002 204.884 513.002 202.436ZM574.218 189.98V193.328H567.558V215H563.454V193.328H556.758V189.98H574.218ZM598.319 189.98V215H594.215V189.98H598.319ZM630.959 215.252C628.631 215.252 626.483 214.712 624.515 213.632C622.571 212.528 621.023 211.004 619.871 209.06C618.743 207.092 618.179 204.884 618.179 202.436C618.179 199.988 618.743 197.792 619.871 195.848C621.023 193.904 622.571 192.392 624.515 191.312C626.483 190.208 628.631 189.656 630.959 189.656C633.311 189.656 635.459 190.208 637.403 191.312C639.371 192.392 640.919 193.904 642.047 195.848C643.175 197.792 643.739 199.988 643.739 202.436C643.739 204.884 643.175 207.092 642.047 209.06C640.919 211.004 639.371 212.528 637.403 213.632C635.459 214.712 633.311 215.252 630.959 215.252ZM630.959 211.688C632.615 211.688 634.091 211.316 635.387 210.572C636.683 209.804 637.691 208.724 638.411 207.332C639.155 205.916 639.527 204.284 639.527 202.436C639.527 200.588 639.155 198.968 638.411 197.576C637.691 196.184 636.683 195.116 635.387 194.372C634.091 193.628 632.615 193.256 630.959 193.256C629.303 193.256 627.827 193.628 626.531 194.372C625.235 195.116 624.215 196.184 623.471 197.576C622.751 198.968 622.391 200.588 622.391 202.436C622.391 204.284 622.751 205.916 623.471 207.332C624.215 208.724 625.235 209.804 626.531 210.572C627.827 211.316 629.303 211.688 630.959 211.688ZM684.173 215H680.069L667.721 196.316V215H663.617V189.944H667.721L680.069 208.592V189.944H684.173V215ZM713.647 215.252C711.967 215.252 710.455 214.964 709.111 214.388C707.767 213.788 706.711 212.948 705.943 211.868C705.175 210.788 704.791 209.528 704.791 208.088H709.183C709.279 209.168 709.699 210.056 710.443 210.752C711.211 211.448 712.279 211.796 713.647 211.796C715.063 211.796 716.167 211.46 716.959 210.788C717.751 210.092 718.147 209.204 718.147 208.124C718.147 207.284 717.895 206.6 717.391 206.072C716.911 205.544 716.299 205.136 715.555 204.848C714.835 204.56 713.827 204.248 712.531 203.912C710.899 203.48 709.567 203.048 708.535 202.616C707.527 202.16 706.663 201.464 705.943 200.528C705.223 199.592 704.863 198.344 704.863 196.784C704.863 195.344 705.223 194.084 705.943 193.004C706.663 191.924 707.671 191.096 708.967 190.52C710.263 189.944 711.763 189.656 713.467 189.656C715.891 189.656 717.871 190.268 719.407 191.492C720.967 192.692 721.831 194.348 721.999 196.46H717.463C717.391 195.548 716.959 194.768 716.167 194.12C715.375 193.472 714.331 193.148 713.035 193.148C711.859 193.148 710.899 193.448 710.155 194.048C709.411 194.648 709.039 195.512 709.039 196.64C709.039 197.408 709.267 198.044 709.723 198.548C710.203 199.028 710.803 199.412 711.523 199.7C712.243 199.988 713.227 200.3 714.475 200.636C716.131 201.092 717.475 201.548 718.507 202.004C719.563 202.46 720.451 203.168 721.171 204.128C721.915 205.064 722.287 206.324 722.287 207.908C722.287 209.18 721.939 210.38 721.243 211.508C720.571 212.636 719.575 213.548 718.255 214.244C716.959 214.916 715.423 215.252 713.647 215.252Z" fill="white" fill-opacity="0.8"/>
</svg>
