<svg width="49" height="34" viewBox="0 0 49 34" fill="none" xmlns="http://www.w3.org/2000/svg">
<g clip-path="url(#clip0_197_334)">
<path d="M0.00012207 0.255981V3.34132H29.3108V26.4814H19.8142C19.1261 23.8295 16.7412 21.8534 13.8841 21.8534C11.0271 21.8534 8.64216 23.8295 7.95413 26.4814H6.1708V18.768H3.08546V29.5667H7.95413C8.64216 32.2186 11.0271 34.1947 13.8841 34.1947C16.7412 34.1947 19.1261 32.2186 19.8142 29.5667H32.6368C33.3249 32.2186 35.7098 34.1947 38.5669 34.1947C41.4239 34.1947 43.8089 32.2186 44.4969 29.5667H49.3656V16.9847L49.2684 16.7425L46.183 7.48648L45.8483 6.42666H32.3962V0.255981H0.00012207ZM1.54279 6.42666V9.512H15.4268V6.42666H1.54279ZM32.3962 9.512H43.6284L46.2802 17.4182V26.4814H44.4969C43.8089 23.8295 41.4239 21.8534 38.5669 21.8534C35.7098 21.8534 33.3249 23.8295 32.6368 26.4814H32.3962V9.512ZM3.08546 12.5973V15.6827H12.3415V12.5973H3.08546ZM13.8841 24.9387C15.6073 24.9387 16.9695 26.3009 16.9695 28.024C16.9695 29.7472 15.6073 31.1094 13.8841 31.1094C12.161 31.1094 10.7988 29.7472 10.7988 28.024C10.7988 26.3009 12.161 24.9387 13.8841 24.9387ZM38.5669 24.9387C40.29 24.9387 41.6522 26.3009 41.6522 28.024C41.6522 29.7472 40.29 31.1094 38.5669 31.1094C36.8437 31.1094 35.4815 29.7472 35.4815 28.024C35.4815 26.3009 36.8437 24.9387 38.5669 24.9387Z" fill="#FFAE00"/>
</g>
<defs>
<clipPath id="clip0_197_334">
<rect width="49" height="34" fill="white"/>
</clipPath>
</defs>
</svg>
