<svg width="34" height="34" viewBox="0 0 34 34" fill="none" xmlns="http://www.w3.org/2000/svg">
    <path
        d="M29.6823 17.4382C30.2096 18.4392 30.5345 19.5342 30.6384 20.6608C30.7422 21.7874 30.6231 22.9234 30.2877 24.0039C29.9523 25.0844 29.4073 26.0882 28.6838 26.958C27.9603 27.8277 27.0725 28.5464 26.0711 29.0729L23.3054 30.5301L22.6253 30.8878C22.0005 31.2166 21.3085 31.3974 20.6027 31.4163C19.8969 31.4351 19.1963 31.2916 18.5548 30.9967L7.75388 26.3822L8.77096 23.3648L15.1944 24.6056L11.8678 18.2845L6.51235 8.1085L9.12128 6.73593L14.4768 16.9149L15.7655 16.2371L13.4045 11.7478L16.012 10.376L18.3729 14.8653L19.6617 14.1875L17.8386 10.7226L20.4476 9.35004L22.2706 12.8149L23.56 12.1312L22.3089 9.7467L24.9171 8.37789L26.1682 10.7624L29.6816 17.4404L29.6823 17.4382ZM4.73651 9.48178C4.19454 8.93933 3.82541 8.24847 3.67573 7.49641C3.52605 6.74435 3.60252 5.96481 3.8955 5.25618C4.18848 4.54754 4.68483 3.94159 5.3219 3.51481C5.95896 3.08802 6.70819 2.85954 7.47499 2.8582C8.09639 2.85889 8.70855 3.00863 9.26011 3.29484C9.81167 3.58106 10.2865 3.9954 10.6448 4.50309C11.0031 5.01078 11.2344 5.59701 11.3193 6.21258C11.4042 6.82815 11.3402 7.4551 11.1327 8.04082L11.8172 9.33458C12.275 8.56704 12.5214 7.69195 12.5314 6.79828C12.5414 5.90461 12.3145 5.02424 11.8739 4.24667C11.4333 3.4691 10.7947 2.82207 10.0229 2.37137C9.25117 1.92066 8.37382 1.68235 7.4801 1.68066C6.17046 1.68085 4.91195 2.18906 3.96942 3.09834C3.02688 4.00763 2.47382 5.24708 2.42663 6.55587C2.37943 7.86467 2.84178 9.14074 3.71637 10.1155C4.59096 11.0904 5.80959 11.6879 7.11582 11.7824L6.42766 10.4738C5.78795 10.2942 5.20543 9.95253 4.73651 9.48178Z"
        fill="black" />
</svg>