<svg width="42" height="42" viewBox="0 0 42 42" fill="none" xmlns="http://www.w3.org/2000/svg">
<path d="M20.9999 1.83337C10.4314 1.83337 1.83325 10.4315 1.83325 21V28.9408C1.83325 30.9035 3.5525 32.5 5.66659 32.5H7.58325C8.09158 32.5 8.5791 32.2981 8.93854 31.9387C9.29798 31.5792 9.49992 31.0917 9.49992 30.5834V20.726C9.49992 20.2176 9.29798 19.7301 8.93854 19.3707C8.5791 19.0112 8.09158 18.8093 7.58325 18.8093H5.84292C6.90859 11.3918 13.2911 5.66671 20.9999 5.66671C28.7088 5.66671 35.0913 11.3918 36.1569 18.8093H34.4166C33.9083 18.8093 33.4207 19.0112 33.0613 19.3707C32.7019 19.7301 32.4999 20.2176 32.4999 20.726V32.5C32.4999 34.6141 30.7807 36.3334 28.6666 36.3334H24.8333V34.4167H17.1666V40.1667H28.6666C32.8948 40.1667 36.3333 36.7282 36.3333 32.5C38.4473 32.5 40.1666 30.9035 40.1666 28.9408V21C40.1666 10.4315 31.5684 1.83337 20.9999 1.83337Z" fill="#FFAE00"/>
</svg>
